<svg style="display: none;" xmlns="http://www.w3.org/2000/svg">
<symbol id="move-star" viewBox="0 0 2048 2048">
<g>
    <g id="svg_3">
     <path id="svg_4" fill="#FF4F19" d="m1101.49512,1226.12622c1.75342,-13.51807 13.93347,-24.69446 30.43262,-27.83118c16.46423,-3.12085 33.66565,2.4054 42.81189,13.86157l244.17822,306.19885c36.69946,46.23218 56.08276,99.6449 56.08276,154.46411l0,341.09863c0,13.51807 -10.58582,25.56555 -26.46216,30.10889c-4.35889,1.2467 -8.91211,1.85803 -13.39063,1.85803c-11.71667,0 -23.11951,-4.15173 -30.86084,-11.72388l-350.3064,-343.44019c-6.69519,-6.58521 -9.84851,-15.04846 -8.79749,-23.50769l56.31201,-441.08716z"/>
    </g>
    <g id="svg_5">
     <path id="svg_6" fill="#E9001E" d="m493.50562,1226.12622c-1.75348,-13.51807 -13.93353,-24.69446 -30.43265,-27.83118c-16.46417,-3.12085 -33.66565,2.4054 -42.81186,13.86157l-244.17818,306.19885c-36.69949,46.23218 -56.0829,99.6449 -56.0829,154.46411l0,341.09863c0,13.51807 10.58591,25.56555 26.4623,30.10889c4.3589,1.2467 8.91209,1.85803 13.39056,1.85803c11.71667,0 23.11957,-4.15173 30.86099,-11.72388l350.30632,-343.44019c6.69519,-6.58521 9.84857,-15.04846 8.79742,-23.50769l-56.31201,-441.08716z"/>
    </g>
    <g id="svg_7">
     <path id="svg_8" fill="#FFD200" d="m818.01221,4.56727c-12.60846,-6.0857 -28.4101,-6.0857 -41.01855,0c-17.04706,8.2115 -417.87173,206.03463 -417.87173,634.77856c0,173.1167 53.63196,633.7196 124.77417,1071.39038c10.31195,63.49829 78.2261,111.38464 157.89194,111.38464l311.42981,0c79.66583,0 147.5799,-47.88635 157.89191,-111.38464c71.14233,-437.67065 124.77417,-898.27362 124.77417,-1071.39038c0,-428.74393 -400.82471,-626.57106 -417.8717,-634.77856z"/>
    </g>
    <g id="svg_9">
     <path id="svg_10" fill="#FF9600" d="m797.50293,1822.12097l-155.7149,0c-79.66583,0 -147.57999,-47.88635 -157.89194,-111.38464c-71.14221,-437.67078 -124.77417,-898.27368 -124.77417,-1071.39038c0,-428.74397 400.82468,-626.5711 417.87173,-634.7786c6.2818,-3.03286 13.36066,-4.54729 20.43958,-4.55928l0.07471,0l0,1822.1129l-0.005,0z"/>
    </g>
    <g id="svg_11">
     <circle id="svg_12" fill="#53DCFF" r="191.80136" cy="671.31277" cx="797.50288"/>
    </g>
    <g id="svg_13">
     <g id="svg_14">
      <path id="svg_15" fill="#FF4F19" d="m797.50293,2045.88928c-22.02863,0 -39.85284,-14.31323 -39.85284,-31.96692l0,-767.20544c0,-17.65369 17.82422,-31.96692 39.85284,-31.96692s39.85278,14.31323 39.85278,31.96692l0,767.20544c0,17.65369 -17.82416,31.96692 -39.85278,31.96692z"/>
     </g>
    </g>
    <g id="svg_16">
     <path id="svg_17" fill="#FF4F19" d="m776.99365,4.56727c-11.39795,5.49031 -194.18286,95.85673 -314.19464,283.14275l669.40778,0c-120.01172,-187.28603 -302.79669,-277.65643 -314.19458,-283.14275c-12.60846,-6.08969 -28.41016,-6.08969 -41.01855,0z"/>
    </g>
    <g id="svg_18">
     <path id="svg_19" fill="#E9001E" d="m797.50293,0c-7.10376,0 -14.20752,1.52242 -20.50928,4.56727c-11.39789,5.49031 -194.18286,95.85673 -314.19464,283.14275l334.70392,0l0,-287.71002z"/>
    </g>
    <g id="svg_20">
     <path id="svg_21" fill="#B3F4FF" d="m1036.61987,671.31274c0,-105.93024 -107.05463,-191.80133 -239.11694,-191.80133l0,383.60272c132.06213,0 239.11694,-85.87109 239.11694,-191.80139z"/>
    </g>
   </g>
   <g id="svg_22">
    <g id="svg_23">
     <path id="svg_24" fill="#5C546A" d="m797.50293,895.08099c-153.80701,0 -278.96973,-100.38 -278.96973,-223.76825s125.16272,-223.76825 278.96973,-223.76825s278.96973,100.38007 278.96973,223.76825s-125.16278,223.76825 -278.96973,223.76825zm0,-383.60269c-109.8692,0 -199.2641,71.70578 -199.2641,159.83444s89.3949,159.83447 199.2641,159.83447s199.2641,-71.70569 199.2641,-159.83447s-89.3949,-159.83444 -199.2641,-159.83444z"/>
    </g>
   </g>
</symbol>
</svg>