<?xml version="1.0" encoding="UTF-8"?>
<!-- Generator: Adobe Illustrator 16.0.3, SVG Export Plug-In . SVG Version: 6.00 Build 0)  -->
<!DOCTYPE svg PUBLIC "-//W3C//DTD SVG 1.1//EN" "http://www.w3.org/Graphics/SVG/1.1/DTD/svg11.dtd">
<svg version="1.1" id="Шар_1" xmlns:dc="http://purl.org/dc/elements/1.1/" xmlns:cc="http://creativecommons.org/ns#" xmlns:rdf="http://www.w3.org/1999/02/22-rdf-syntax-ns#" xmlns:svg="http://www.w3.org/2000/svg" xmlns:sodipodi="http://sodipodi.sourceforge.net/DTD/sodipodi-0.dtd" xmlns:inkscape="http://www.inkscape.org/namespaces/inkscape" sodipodi:docname="\\designer-bsd\designer-bsd\new.customwritings.designer-bsd.uvolan\public\img\sprite-icon.svg" inkscape:version="0.48.4 r9939" xmlns="http://www.w3.org/2000/svg" xmlns:xlink="http://www.w3.org/1999/xlink" x="0px" y="0px" width="202.167px" height="281.265px" viewBox="0 0 202.167 281.265" enable-background="new 0 0 202.167 281.265" xml:space="preserve">
<sodipodi:namedview inkscape:cy="102.54792" inkscape:cx="114.38018" inkscape:zoom="7.700873" showgrid="false" guidetolerance="10" gridtolerance="10" objecttolerance="10" borderopacity="1" pagecolor="#ffffff" bordercolor="#666666" id="namedview281" inkscape:current-layer="Шар_1" inkscape:window-maximized="1" inkscape:window-y="-8" inkscape:window-x="-8" inkscape:window-height="1018" inkscape:window-width="1920" inkscape:pageshadow="2" inkscape:pageopacity="0">
	</sodipodi:namedview>
<g id="g3">
	<polygon id="polygon5" fill="#2C3E50" points="114.882,115.216 110.259,104.145 117.056,101.691 122.802,113.323 117.897,112.412     "/>
	<polygon id="polygon7" fill="#2C3E50" points="99.467,111.712 104.232,102.461 112.221,104.003 106.964,115.216 104.583,111.358     "/>
	<circle id="circle9" fill="#D39629" cx="110.692" cy="90.382" r="16.923"/>
	<circle id="circle11" fill="#F2B033" cx="110.692" cy="90.382" r="14.225"/>
	<g id="g13">
		<path id="path15" fill="#885A24" d="M118.275,82.53c0,4.08-3.361,7.387-7.511,7.387c-4.147,0-7.513-3.307-7.513-7.387"/>
		<path id="path17" fill="#885A24" d="M108.473,100.063c0-1.223,1.007-2.213,2.25-2.213s2.25,0.99,2.25,2.213"/>
		<path id="path19" fill="#885A24" d="M112.218,99.25h-2.955c0,0,0.566-2.259,0.566-6c0-2.993-0.566-6-0.566-6h2.955    c0,0-0.518,2.42-0.518,6C111.701,96.968,112.218,99.25,112.218,99.25z"/>
		<g id="g21">
			<g id="g23">
				<path id="path25" fill="#885A24" d="M116.949,87.881c0.205-0.55,0.41-1.1,0.615-1.648c1.379-0.857,2.059,0.068,2.039,2.776      c-0.52,0.57-1.395,0.941-2.086,1.227c-0.65,0.268-1.346,0.432-2.021,0.615c-1.195,0.327-2.418,0.713-3.291,1.635      c-1.365,1.438,0.357,3.761,2.021,2.539c0.092-0.066,0.003-0.225-0.096-0.154c-0.746-0.366-1.489-0.733-2.235-1.102      c0.036-0.563,0.258-1.031,0.668-1.396c0.479-0.511,1.248-0.776,1.883-1.013c0.788-0.289,1.615-0.465,2.418-0.705      c1.166-0.351,3.612-1.285,3.646-2.823c0.081-3.277-4.859-2.046-3.716,0.142C116.848,88.074,117.003,87.983,116.949,87.881      L116.949,87.881z"/>
			</g>
		</g>
		<g id="g27">
			<g id="g29">
				<path id="path31" fill="#885A24" d="M104.813,87.971c1.216-2.318-3.792-3.207-3.728-0.606c0.045,1.82,1.885,2.661,3.392,3.198      c0.757,0.271,1.55,0.442,2.319,0.677c0.599,0.181,1.17,0.425,1.716,0.729c0.383,0.221,0.696,0.516,0.938,0.887      c0.689,1.267,0.032,1.937-1.979,2.011c-0.1-0.068-0.188,0.088-0.096,0.155c1.658,1.221,3.386-1.103,2.021-2.539      c-0.877-0.926-2.095-1.295-3.291-1.635c-0.681-0.191-1.354-0.377-2.021-0.615c-0.791-0.282-1.447-0.686-2.088-1.227      c0.455-1.022,0.91-2.044,1.361-3.066c0.904,0.194,1.335,0.841,1.294,1.938C104.604,87.983,104.759,88.074,104.813,87.971      L104.813,87.971z"/>
			</g>
		</g>
	</g>
</g>
<path id="path33" fill="#F2B033" stroke="#885A24" stroke-width="0.5" stroke-miterlimit="10" d="M146.896,113.001  c0,0,0.988-1.203,2.878-1.203c7.104,0,10.343-1.334,12.771-6.149c3.75-7.438-0.81-11.891-0.81-16.5c0-3.382,2.339-7.072,2.339-7.072  l-7.173-8.301c-4.024,3.587-6.677,2.665-10.004,0c-3.327,2.665-5.979,3.587-10.004,0l-7.172,8.301c0,0,2.338,3.69,2.338,7.072  c0,4.611-4.56,9.062-0.81,16.5c2.428,4.815,5.666,6.149,12.771,6.149C145.908,111.798,146.896,113.001,146.896,113.001z"/>
<path id="path35" fill="#885A24" d="M156.343,102.367h-0.994c0,0-0.995,0-0.995-0.997v-2.494c0-0.276-0.224-0.499-0.498-0.499  c-0.272,0-0.496,0.223-0.496,0.499l-0.008,4.286c0,0.607-1.998,2.201-6.456,2.201c-4.457,0-6.456-1.594-6.456-2.201l-0.007-4.286  c0-0.276-0.223-0.499-0.497-0.499s-0.498,0.223-0.498,0.499v2.494c0,0.997-0.994,0.997-0.994,0.997h-0.995c0,0-0.994,0-0.994-0.997  v-4.24c0-2.917,2.875-5.391,6.896-6.329c0,0,1.229,1.105,3.55,1.105c2.323,0,3.554-1.105,3.554-1.105  c4.016,0.938,6.893,3.412,6.893,6.329v4.24C157.337,102.367,156.343,102.367,156.343,102.367z M146.875,90.395  c-2.472,0-4.476-2.015-4.476-4.493c0-2.48,2.003-4.491,4.476-4.491c2.477,0,4.479,2.011,4.479,4.491  C151.348,88.38,149.345,90.395,146.875,90.395z"/>
<path id="path37" opacity="0.15" stroke="#885A24" stroke-width="0.5" stroke-miterlimit="10" enable-background="new    " d="  M146.896,113.001c0,0,0.988-1.203,2.878-1.203c7.104,0,10.343-1.334,12.771-6.149c3.75-7.438-0.81-11.891-0.81-16.5  c0-3.382,2.339-7.072,2.339-7.072l-7.173-8.301c-4.024,3.587-6.677,2.665-10.004,0"/>
<circle id="circle39" fill="#D39629" cx="183.75" cy="90.455" r="16.747"/>
<circle id="circle41" fill="#F2B033" cx="183.75" cy="90.455" r="14.078"/>
<g id="g43">
	<g id="g45">
		<path id="path47" fill="#885A24" d="M180.699,82.966h-3.328v13.316h3.328V82.966z M184.861,86.295h-3.328v9.987h3.328V86.295z     M189.021,89.622h-3.329v6.66h3.329V89.622z M189.853,92.952v3.33h3.329v-3.33H189.853z M175.707,82.966h-0.272v14.979h0.272    h17.197v-0.276h-17.197V82.966z"/>
	</g>
</g>
<g id="g49">
	<g id="g51">
		<path id="path53" fill="#FFFFFF" d="M23.766,10.732c0-4.723-3.778-8.389-10.471-8.389S0.944,6.01,0.944,10.732    c0,2.677,1.972,5.063,4.698,6.631c0.617,0.354,0.833,2.672-2.638,4.282c0,0,4.792,1.15,7.908-2.708    c0.771,0.108,1.567,0.164,2.383,0.164C19.988,19.102,23.766,15.457,23.766,10.732z M27.635,20.081    c2.725-1.567,4.634-3.954,4.634-6.63c0-4.039-4.091-7.795-9.459-8.799c4.841,7.538,1.217,15.92-9.661,15.449    c1.768,1.228,3.945,2.067,6.833,2.067c0.816,0,1.612-0.222,2.382-0.329c3.116,3.856,8.207,1.969,8.207,1.969    C27.101,22.2,27.018,20.438,27.635,20.081z"/>
	</g>
</g>
<g id="g55">
	<g id="g57">
		<path id="path59" fill="#3F454C" d="M68.996,97.055V98.7c0.185-0.022,0.32-0.066,0.404-0.13c0.147-0.111,0.221-0.301,0.221-0.574    c0-0.207-0.069-0.604-0.207-0.725C69.332,97.201,69.192,97.129,68.996,97.055z M68.044,95.296c0,0.204,0.075,0.362,0.224,0.481    c0.083,0.063,0.21,0.125,0.384,0.181v-1.271c-0.206,0.004-0.359,0.062-0.458,0.17C68.095,94.965,68.044,95.111,68.044,95.296z     M77.448,79.262h7.27c0.573,0,1.038-0.473,1.038-1.059c0-0.585-0.465-1.06-1.038-1.06h-7.27c-0.574,0-1.039,0.475-1.039,1.06    C76.409,78.789,76.874,79.262,77.448,79.262z M76.474,91.966h7.27c0.573,0,1.038-0.474,1.038-1.059s-0.464-1.061-1.038-1.061    h-7.27c-0.573,0-1.038,0.476-1.038,1.061S75.9,91.966,76.474,91.966z M78.551,81.379c0,0.584,0.465,1.058,1.039,1.058h7.27    c0.574,0,1.039-0.474,1.039-1.058c0-0.586-0.465-1.059-1.039-1.059h-7.27C79.016,80.32,78.551,80.793,78.551,81.379z     M86.859,83.496h-7.27c-0.573,0-1.039,0.475-1.039,1.059c0,0.585,0.465,1.061,1.039,1.061h7.27c0.574,0,1.039-0.476,1.039-1.061    C87.897,83.971,87.433,83.496,86.859,83.496z M83.744,94.083c0-0.586-0.465-1.06-1.039-1.06h-7.27    c-0.573,0-1.039,0.474-1.039,1.06c0,0.585,0.465,1.058,1.039,1.058h7.27C83.278,95.141,83.744,94.668,83.744,94.083z     M86.859,87.731c0-0.585-0.465-1.06-1.039-1.06h-7.27c-0.574,0-1.039,0.475-1.039,1.06c0,0.584,0.465,1.059,1.039,1.059h7.27    C86.394,88.79,86.859,88.315,86.859,87.731z M84.781,99.377h-7.269c-0.574,0-1.039,0.473-1.039,1.057    c0,0.586,0.465,1.063,1.039,1.063h7.269c0.574,0,1.039-0.477,1.039-1.063C85.82,99.85,85.355,99.377,84.781,99.377z     M84.781,96.199h-7.269c-0.574,0-1.039,0.475-1.039,1.06s0.465,1.061,1.039,1.061h7.269c0.574,0,1.039-0.476,1.039-1.061    S85.355,96.199,84.781,96.199z M91.394,99.48l-3.116-5.502c-0.288-0.506-0.922-0.682-1.419-0.39    c-0.497,0.293-0.667,0.938-0.38,1.447l3.116,5.5c0.286,0.508,0.922,0.681,1.418,0.388C91.509,100.633,91.68,99.986,91.394,99.48z     M68.653,91.898c-2.582,0-4.674,2.134-4.674,4.766c0,2.63,2.092,4.763,4.674,4.763c2.581,0,4.673-2.133,4.673-4.763    C73.326,94.032,71.233,91.898,68.653,91.898z M69.85,99.212c-0.268,0.169-0.487,0.269-0.854,0.297v0.925h-0.604v-0.918    c-0.466-0.054-0.555-0.156-0.783-0.311c-0.406-0.278-0.604-0.354-0.597-1.023h0.958c0.033,0.306,0.08,0.113,0.139,0.217    c0.091,0.162,0.273,0.267,0.542,0.313v-1.776l-0.287-0.086c-0.453-0.136-0.771-0.322-0.957-0.563s-0.279-0.532-0.279-0.872    c0-0.227,0.037-0.43,0.109-0.611c0.072-0.184,0.173-0.34,0.303-0.475c0.168-0.171,0.355-0.289,0.562-0.354    c0.125-0.041,0.081-0.07,0.323-0.091v-0.845h0.571v0.852c0.384,0.031,0.556,0.129,0.774,0.291c0.399,0.26,0.507,0.347,0.521,0.924    h-0.707c-0.018-0.213-0.053-0.039-0.104-0.141c-0.09-0.171-0.25-0.265-0.484-0.281v1.379c0.561,0.197,0.84,0.373,1.034,0.524    c0.318,0.253,0.477,0.841,0.477,1.304C70.507,98.494,70.288,98.938,69.85,99.212z"/>
	</g>
</g>
<g id="g61">
	<g id="g63">
		<path id="path65" fill="#0076A4" d="M37.376,25.12h18.009v-1.001H37.376V25.12z M56.938,5.259l-2.715-2.716    c-0.6-0.599-1.577-0.595-2.181,0.011L50.364,4.23l4.886,4.886l1.678-1.677C57.533,6.836,57.537,5.858,56.938,5.259z M54.762,9.651    l-4.925-4.924l-11.51,11.509l4.926,4.926L54.762,9.651z M40.564,16.228l9.264-9.264l0.539,0.538l-9.263,9.266L40.564,16.228z     M41.643,17.306l9.263-9.263l0.541,0.54l-9.264,9.265L41.643,17.306z M51.986,9.122l0.539,0.539l-9.263,9.265l-0.54-0.54    L51.986,9.122z M42.611,21.54l-4.662-4.661l-1.451,4.085l2.028,2.027L42.611,21.54z M36.246,21.737l-0.865,2.371l2.37-0.864    L36.246,21.737z"/>
	</g>
</g>
<g id="g67">
	<g id="g69">
		
			<rect id="rect71" x="66.284" y="18.208" transform="matrix(-0.7194 -0.6946 0.6946 -0.7194 100.2905 87.7946)" opacity="0.8" fill="#0076A4" enable-background="new    " width="3.189" height="10.863"/>
		<path id="path73" fill="#0076A4" d="M63.229,31.985c-0.814,0.915-2.218,0.997-3.133,0.181l-0.019-0.015    c-0.916-0.816-0.997-2.219-0.182-3.135l4.682-5.257c0.814-0.916,2.218-0.998,3.134-0.182l0.018,0.016    c0.916,0.815,0.997,2.218,0.182,3.134L63.229,31.985z"/>
		<circle id="circle75" fill="none" stroke="#0076A4" stroke-width="2" stroke-miterlimit="10" cx="78.405" cy="12.736" r="9.686"/>
		<path id="path77" opacity="0.3" fill="#0076A4" enable-background="new    " d="M72.539,17.006    c-0.305-4.804,2.452-9.032,6.552-9.734c0.835-0.145,1.667-0.131,2.471,0.02c-1.279-0.821-2.765-1.187-4.267-0.929    c-3.623,0.621-5.959,4.619-5.221,8.931C72.178,15.892,72.336,16.464,72.539,17.006z"/>
	</g>
	
		<rect id="rect79" x="80.538" y="13.106" transform="matrix(0.7067 -0.7075 0.7075 0.7067 10.6541 63.4454)" fill="#0076A4" width="2.636" height="11.531"/>
	
		<rect id="rect81" x="88.631" y="9.148" transform="matrix(-0.7075 -0.7067 0.7067 -0.7075 141.5441 92.6632)" fill="#0076A4" width="2.635" height="15.782"/>
</g>
<g id="g83">
	<g id="g85">
		<path id="path87" fill="#0076A4" d="M114.798,8.138h-1.979v1.976h1.979V8.138z M114.798,3.197h-1.979v3.951h1.979V3.197z     M103.929,3.197h-1.977v3.951h1.977V3.197z M103.929,8.138h-1.977v1.976h1.977V8.138z M115.724,6.162l0.063,4.939h-3.953V6.162    h-6.916v4.939h-3.953V6.162H98v23.713h20.75V6.162H115.724z M103.929,26.848h-2.963v-2.965h2.963V26.848z M103.929,22.896h-2.963    v-2.965h2.963V22.896z M103.929,18.943h-2.963v-2.965h2.963V18.943z M107.882,26.848h-2.965v-2.965h2.965V26.848z M107.882,22.896    h-2.965v-2.965h2.965V22.896z M107.882,18.943h-2.965v-2.965h2.965V18.943z M111.833,26.848h-2.963v-2.965h2.963V26.848z     M111.833,22.896h-2.963v-2.965h2.963V22.896z M111.833,18.943h-2.963v-2.965h2.963V18.943z M115.787,26.848h-2.965v-2.965h2.965    V26.848z M115.787,22.896h-2.965v-2.965h2.965V22.896z M115.787,18.943h-2.965v-2.965h2.965V18.943z"/>
	</g>
</g>
<g id="g89">
	<path id="path91" fill="#414042" d="M81.406,35.9h10.508l4.568,4.028v16.457c0,1.65-1.084,3-2.408,3H81.406   c-1.326,0-2.41-1.35-2.41-3V38.901C78.997,37.251,80.081,35.9,81.406,35.9z"/>
	<path id="path93" fill="#414042" d="M87.74,35.465h4.175c0.111,0,0.21,0.042,0.288,0.109l0.002,0.001l0.002,0.003l4.563,4.024   c0.106,0.094,0.156,0.227,0.146,0.357v16.426h0.001v0.001h-0.001c0,0.927-0.308,1.774-0.803,2.392   c-0.517,0.645-1.238,1.043-2.04,1.043v0.002l0,0H87.74V58.95h6.334l0,0v0.001c0.522,0,1.004-0.275,1.361-0.718   c0.378-0.472,0.612-1.125,0.613-1.847h-0.002v-0.001h0.002V40.127l-4.298-3.79h-4.01V35.465z M81.406,35.465h6.333v0.872h-6.333   h-0.001v-0.001c-0.522,0-1.004,0.275-1.361,0.718c-0.376,0.472-0.612,1.124-0.612,1.847h0.001v0.001v17.483v0.001h-0.001   c0,0.724,0.236,1.375,0.612,1.845c0.357,0.444,0.839,0.72,1.362,0.72V58.95h0.001h6.333v0.872h-6.333h-0.001V59.82   c-0.802,0-1.523-0.398-2.039-1.043c-0.495-0.616-0.803-1.464-0.803-2.392h-0.003v-0.001V38.901V38.9h0.003   c0-0.927,0.307-1.774,0.803-2.393C79.883,35.864,80.604,35.467,81.406,35.465L81.406,35.465L81.406,35.465L81.406,35.465z"/>
	<path id="path95" fill="#FFFFFF" d="M69.211,39.301H79.72c0.11,0,0.211,0.042,0.287,0.109l0.003,0.001l0.003,0.005l4.563,4.022   c0.106,0.094,0.155,0.226,0.146,0.356v16.427h0.002v0.001h-0.002c-0.001,0.927-0.309,1.774-0.803,2.392   c-0.517,0.643-1.238,1.043-2.039,1.043v0.002l0,0H69.21l0,0v-0.002c-0.803,0-1.524-0.4-2.04-1.043   c-0.495-0.616-0.803-1.464-0.803-2.392h-0.002v-0.001V42.737v-0.001h0.002c0-0.927,0.309-1.774,0.803-2.392   C67.687,39.701,68.408,39.302,69.211,39.301L69.211,39.301L69.211,39.301z"/>
	<path id="path97" fill="#414042" d="M93.994,39.581l1.38-0.048l-1.38-1.218v-1.161l2.777,2.448l-0.001,0.001   c0.087,0.076,0.144,0.188,0.148,0.313c0.008,0.239-0.18,0.439-0.421,0.448l-2.502,0.087L93.994,39.581L93.994,39.581z    M92.614,37.099l0.533,2.513l0.847-0.03v0.87l-1.154,0.041c-0.218,0.021-0.422-0.124-0.469-0.344l-0.877-4.137   c-0.036-0.135-0.006-0.285,0.094-0.397c0.159-0.183,0.434-0.199,0.615-0.039l1.791,1.58v1.161L92.614,37.099z"/>
	<path id="path99" fill="#414042" d="M69.211,39.736H79.72l4.568,4.028v16.457c0,1.649-1.084,3-2.409,3H69.211   c-1.325,0-2.409-1.351-2.409-3V42.737C66.802,41.088,67.886,39.736,69.211,39.736z"/>
	<polygon id="polygon101" fill="#FFFFFF" points="79.72,39.736 80.602,43.894 84.288,43.766  "/>
	<polygon id="polygon103" fill="#FFFFFF" points="91.915,35.9 92.797,40.058 96.482,39.929  "/>
</g>
<path id="path105" fill="#414042" d="M112.908,35.191h6.604c1.166,0,2.265,0.777,2.353,1.771v0.26  c-0.002,0.022-0.003,0.045-0.007,0.066l-2.019,14.931c-0.156,1.146-1.063,2.098-2.348,2.098h-2.474c-1.29,0-2.188-0.953-2.353-2.098  l-2.109-14.931l-0.01-0.053v-0.301C110.658,35.954,111.753,35.191,112.908,35.191L112.908,35.191z M114.343,55.945h3.787  c0.942,0,1.715,0.771,1.715,1.715v3.786c0,0.942-0.771,1.715-1.715,1.715h-3.787c-0.942,0-1.715-0.771-1.715-1.715V57.66  C112.628,56.717,113.401,55.945,114.343,55.945z"/>
<path id="path107" fill="#414042" d="M103.727,34.54l0.133,0.202l2.009,3.05l1.957,2.933h0.012v0.02l0.041,0.062h-0.041v22.239  v1.132c0.289,3.612-2.229,4.249-3.971,4.284l-0.14,0.001v-4.336h3.603v-0.599h-3.603v-0.482h1.168v-20.78v-0.005h0.001  c-0.001-0.363-0.135-0.694-0.35-0.937c-0.211-0.235-0.502-0.384-0.819-0.391v-0.416c0.422,0.006,0.806,0.201,1.084,0.514  c0.165,0.185,0.292,0.409,0.371,0.66c0.205-0.566,0.7-0.967,1.278-0.967h0.889l-1.766-2.681l-1.145-1.729h-0.717L103.727,34.54  L103.727,34.54z M99.634,40.725l1.932-2.933l2.008-3.05l0.146-0.218l0.01,0.016v1.775h-0.734l-1.141,1.729l-1.765,2.681h0.864  c0.577,0,1.073,0.4,1.278,0.967c0.079-0.251,0.208-0.478,0.373-0.661l0,0c0.279-0.315,0.671-0.513,1.104-0.513v-0.002h0.002h0.002  v0.002h0.021v0.416l-0.021-0.001v0.001h-0.002h-0.002v-0.001c-0.326,0.001-0.623,0.15-0.836,0.392l0,0  c-0.219,0.241-0.353,0.575-0.353,0.938l0,0v0.003v20.779h1.212v0.482h-3.604v0.599h3.604v4.336  c-1.785-0.014-4.215-0.944-4.153-4.285v-1.132v-22.32H99.634z"/>
<path id="path109" fill="#414042" d="M49.166,35.191h0.002l0,0c4.067,0.002,7.75,1.649,10.416,4.315  c2.663,2.664,4.312,6.344,4.313,10.411h0.001v0.003v0.004h-0.001c0,4.066-1.65,7.749-4.314,10.414  c-2.665,2.664-6.345,4.313-10.413,4.313v0.003h-0.003l0,0v-7.788l3.186,0.878c0.172,0.055,0.353,0.09,0.543,0.1  c1.128,0.048,2.083-0.829,2.132-1.958l0.155-3.394l1.792-2.718c0.115-0.154,0.212-0.328,0.285-0.518  c0.399-1.058-0.137-2.238-1.194-2.637l-3.177-1.194l-2.081-2.604c-0.103-0.139-0.225-0.265-0.367-0.376  c-0.376-0.3-0.826-0.445-1.272-0.445v-6.808H49.166L49.166,35.191z M49.166,64.654L49.166,64.654l-0.001-0.003  c-4.068,0-7.75-1.649-10.414-4.313c-2.664-2.666-4.313-6.347-4.315-10.412l0,0v-0.005V49.92l0,0  c0.002-4.066,1.651-7.749,4.315-10.416c2.665-2.663,6.346-4.311,10.413-4.313l0,0h0.003v6.808c-0.604,0-1.201,0.265-1.604,0.774  l-2.119,2.652l-3.177,1.194l0.001,0.003c-0.138,0.053-0.273,0.121-0.403,0.205c-0.941,0.62-1.204,1.887-0.584,2.831l1.87,2.833  l0.152,3.394h0.005c0.005,0.149,0.028,0.299,0.068,0.449c0.298,1.089,1.42,1.731,2.508,1.436l3.281-0.904h0.001V64.654z"/>
<path id="path111" fill="#414142" d="M18.7,69.088c0,0,0.886-1.079,2.576-1.079c6.362,0,9.261-1.193,11.435-5.505  c3.357-6.662-0.725-10.646-0.725-14.775c0-3.027,2.093-6.331,2.093-6.331l-6.422-7.433c-3.603,3.212-5.978,2.387-8.957,0  c-2.979,2.387-5.354,3.212-8.958,0l-6.42,7.433c0,0,2.093,3.304,2.093,6.331c0,4.129-4.083,8.113-0.725,14.775  c2.174,4.312,5.072,5.505,11.433,5.505C17.814,68.009,18.7,69.088,18.7,69.088z"/>
<path id="path113" fill="#818181" d="M27.158,59.565h-0.89c0,0-0.891,0-0.891-0.893v-2.231c0-0.249-0.2-0.447-0.446-0.447  c-0.245,0-0.445,0.198-0.445,0.447l-0.007,3.837c0,0.546-1.789,1.971-5.78,1.971c-3.99,0-5.78-1.425-5.78-1.971l-0.007-3.837  c0-0.249-0.2-0.447-0.445-0.447c-0.246,0-0.445,0.198-0.445,0.447v2.231c0,0.893-0.891,0.893-0.891,0.893H10.24  c0,0-0.89,0-0.89-0.893v-3.797c0-2.61,2.575-4.825,6.17-5.665c0,0,1.099,0.989,3.178,0.989c2.079,0,3.178-0.989,3.178-0.989  c3.595,0.84,6.171,3.055,6.171,5.665v3.797C28.049,59.565,27.158,59.565,27.158,59.565z M18.68,48.846  c-2.212,0-4.006-1.801-4.006-4.021c0-2.22,1.793-4.021,4.006-4.021c2.213,0,4.006,1.8,4.006,4.021  C22.686,47.046,20.892,48.846,18.68,48.846z"/>
<path id="path115" opacity="0.15" fill="#FFFFFF" enable-background="new    " d="M18.7,69.088c0,0,0.886-1.079,2.576-1.079  c6.362,0,9.261-1.193,11.435-5.505c3.357-6.662-0.725-10.646-0.725-14.775c0-3.027,2.093-6.331,2.093-6.331l-6.422-7.433  c-3.603,3.212-5.978,2.387-8.957,0"/>
<g id="g117">
	<circle id="circle119" fill="#2694CD" cx="131.932" cy="17.589" r="4.575"/>
	<path id="path121" fill="#2694CD" d="M125,32.25v-3.614c0-3.82,3.188-6.915,7-6.915l0,0c3.818,0,7,3.095,7,6.915v3.614"/>
	<ellipse id="ellipse123" fill="#2694CD" cx="145.513" cy="6.662" rx="9.758" ry="6.453"/>
	<path id="path125" fill="#2694CD" d="M141.441,10.656c0,0-0.307,4.147-1.536,5.378c4.239-2.099,5.608-3.994,5.608-5.378"/>
</g>
<path id="path127" fill="#2694CD" d="M144.771,66.205h-17.813c-1.099,0-1.979-0.884-1.979-1.975V40.382  c0-1.09,0.886-1.975,1.979-1.975h4.942v2.059h-3.956c-0.549,0-0.986,0.441-0.986,0.986v21.79c0,0.545,0.438,0.988,0.986,0.988  h15.831c0.552,0,0.99-0.443,0.99-0.988v-21.79c0-0.545-0.438-0.986-0.99-0.986h-3.953v-2.059h4.943c1.093,0,1.979,0.885,1.979,1.975  V64.23C146.75,65.321,145.864,66.205,144.771,66.205z M131.908,46.39h10.885v0.988h-10.885V46.39z M131.908,49.354h10.885v0.988  h-10.885V49.354z M131.908,52.317h10.885v0.986h-10.885V52.317z M131.908,55.278h10.885v0.988h-10.885V55.278z M142.792,62.192  h-10.885v-0.986h10.885V62.192z M131.908,58.243h10.885v0.986h-10.885V58.243z M128.938,46.371h0.99v0.988h-0.99V46.371z   M128.938,49.334h0.99v0.986h-0.99V49.334z M128.938,52.297h0.99v0.986h-0.99V52.297z M128.938,55.258h0.99v0.988h-0.99V55.258z   M129.927,62.172h-0.99v-0.986h0.99V62.172z M128.938,58.223h0.99v0.986h-0.99V58.223z M141.803,41.514  c0.547,0,0.989,0.442,0.989,0.988c0,0.547,0,1.913,0,1.913h-13.854c0,0,0-1.366,0-1.913c0-0.546,0.442-0.988,0.99-0.988h2.969  c0,0,0.011-1.403,0.011-3.01c0-1.666,1.287-3.06,2.957-3.06s3.002,1.465,3.002,3.069c0,1.729-0.033,2.999-0.033,2.999  L141.803,41.514L141.803,41.514z M135.865,38.407c-0.547,0-0.988,0.443-0.988,0.988c0,0.546,0.441,0.986,0.988,0.986  s0.99-0.44,0.99-0.986C136.854,38.851,136.412,38.407,135.865,38.407z"/>
<g id="g129">
	<circle id="circle131" fill="#FFFFFF" cx="162.932" cy="17.589" r="4.575"/>
	<path id="path133" fill="#FFFFFF" d="M156,32.25v-3.614c0-3.82,3.188-6.915,7-6.915l0,0c3.818,0,7,3.095,7,6.915v3.614"/>
	<ellipse id="ellipse135" fill="#FFFFFF" cx="176.513" cy="6.662" rx="9.758" ry="6.453"/>
	<path id="path137" fill="#FFFFFF" d="M172.441,10.656c0,0-0.307,4.147-1.536,5.378c4.239-2.099,5.608-3.994,5.608-5.378"/>
</g>
<path id="path139" fill="#FFFFFF" d="M170.771,66.205h-17.813c-1.099,0-1.979-0.884-1.979-1.975V40.382  c0-1.09,0.886-1.975,1.979-1.975h4.942v2.059h-3.953c-0.552,0-0.989,0.441-0.989,0.986v21.79c0,0.545,0.438,0.988,0.989,0.988  h15.828c0.552,0,0.99-0.443,0.99-0.988v-21.79c0-0.545-0.438-0.986-0.99-0.986h-3.953v-2.059h4.943c1.094,0,1.979,0.885,1.979,1.975  V64.23C172.75,65.321,171.864,66.205,170.771,66.205z M157.908,46.39h10.885v0.988h-10.885V46.39z M157.908,49.354h10.885v0.988  h-10.885V49.354z M157.908,52.317h10.885v0.986h-10.885V52.317z M157.908,55.278h10.885v0.988h-10.885V55.278z M168.792,62.192  h-10.885v-0.986h10.885V62.192z M157.908,58.243h10.885v0.986h-10.885V58.243z M154.938,46.371h0.99v0.988h-0.99V46.371z   M154.938,49.334h0.99v0.986h-0.99V49.334z M154.938,52.297h0.99v0.986h-0.99V52.297z M154.938,55.258h0.99v0.988h-0.99V55.258z   M155.927,62.172h-0.99v-0.986h0.99V62.172z M154.938,58.223h0.99v0.986h-0.99V58.223z M167.803,41.514  c0.547,0,0.989,0.442,0.989,0.988c0,0.547,0,1.913,0,1.913h-13.854c0,0,0-1.366,0-1.913c0-0.546,0.442-0.988,0.99-0.988h2.969  c0,0,0.011-1.403,0.011-3.01c0-1.666,1.287-3.06,2.957-3.06s3.002,1.465,3.002,3.069c0,1.729-0.033,2.999-0.033,2.999  L167.803,41.514L167.803,41.514z M161.865,38.407c-0.547,0-0.988,0.443-0.988,0.988c0,0.546,0.441,0.986,0.988,0.986  s0.99-0.44,0.99-0.986C162.854,38.851,162.412,38.407,161.865,38.407z"/>
<g id="g141">
	<g id="g143">
		<path id="path145" fill="#2694CD" d="M197.843,54.268c-0.967-1.674-3.106-2.248-4.78-1.281c-1.103,0.637-1.715,1.782-1.737,2.968    l-0.842,0.831l-8.111,4.684l-0.367,1.365l2.732,0.732l0.146-1.865l1.867,0.99l0.584-0.625l0.084-1.615l1.961,0.615l0.646-0.406    l0.021-1.646l1.615,0.554l1.729-0.36c0.985,0.439,2.162,0.425,3.171-0.157C198.236,58.082,198.81,55.941,197.843,54.268z     M195.899,56.4c-0.479,0.275-1.09,0.112-1.366-0.365c-0.275-0.479-0.111-1.091,0.366-1.367c0.479-0.275,1.09-0.111,1.366,0.367    C196.542,55.513,196.378,56.125,195.899,56.4z"/>
	</g>
</g>
<rect id="rect147" x="6.701" y="72.772" transform="matrix(-0.8982 -0.4396 0.4396 -0.8982 -24.7811 170.6397)" fill="#2694CD" width="1.333" height="30.835"/>
<rect id="rect149" x="6.695" y="99.845" transform="matrix(-0.8982 0.4396 -0.4396 -0.8982 64.6395 215.555)" fill="#2694CD" width="1.333" height="30.834"/>
<rect id="rect151" x="22.7" y="72.772" transform="matrix(-0.8982 -0.4396 0.4396 -0.8982 5.5886 177.6731)" fill="#B1B0B1" width="1.333" height="30.834"/>
<rect id="rect153" x="22.694" y="99.844" transform="matrix(-0.8983 0.4394 -0.4394 -0.8983 94.9954 208.5319)" fill="#B1B0B1" width="1.333" height="30.835"/>
<rect id="rect155" x="39.701" y="72.773" transform="matrix(0.8982 -0.4396 0.4396 0.8982 -34.657 26.7222)" fill="#2694CD" width="1.333" height="30.834"/>
<rect id="rect157" x="39.709" y="99.848" transform="matrix(0.8982 0.4396 -0.4396 0.8982 54.7785 -6.0148)" fill="#2694CD" width="1.333" height="30.836"/>
<rect id="rect159" x="54.702" y="72.771" transform="matrix(0.8979 -0.4402 0.4402 0.8979 -33.1657 33.3743)" fill="#B1B0B1" width="1.333" height="30.837"/>
<rect id="rect161" x="54.701" y="99.84" transform="matrix(0.8982 0.4396 -0.4396 0.8982 56.3008 -12.6056)" fill="#B1B0B1" width="1.333" height="30.835"/>
<g id="g163">
	<g id="g165">
		<path id="path167" fill="#0076A4" d="M20.749,146.146c0,0.275,0.138,0.496,0.346,0.658c0.115,0.09,0.568,0.172,0.568,0.246v-1.736    c0,0.006-0.534,0.084-0.672,0.229C20.852,145.688,20.749,145.892,20.749,146.146z"/>
		<path id="path169" fill="#0076A4" d="M22,148.552v2.256c0-0.033,0.484-0.094,0.602-0.18c0.205-0.15,0.328-0.414,0.328-0.789    c0-0.281-0.125-0.822-0.318-0.988C22.497,148.753,22,148.654,22,148.552z"/>
		<path id="path171" fill="#0076A4" d="M21.596,141.494c-3.603,0-6.523,2.92-6.523,6.521c0,3.604,2.92,6.521,6.523,6.521    s6.523-2.92,6.523-6.521C28.12,144.414,25.199,141.494,21.596,141.494z M23.23,151.505c-0.374,0.229-1.23,0.367-1.23,0.406v1.338    h-1v-1.328c0-0.07-0.657-0.139-0.978-0.352c-0.564-0.38-0.726-0.32-0.716-1.32h1.338c0.046,0,0.313,0.076,0.396,0.217    c0.129,0.225-0.04,0.289,0.96,0.354v-2.434l-0.604-0.118c-0.631-0.188-1.177-0.438-1.436-0.771c-0.26-0.332-0.44-0.729-0.44-1.193    c0-0.309,0.025-0.588,0.126-0.838c0.101-0.252,0.229-0.469,0.411-0.646c0.235-0.232,0.35-0.396,0.637-0.484    c0.175-0.057,0.305-0.1,0.305-0.123v-0.957h1v0.969c0,0.045,0.813,0.359,1.119,0.582c0.556,0.354,0.746,0.449,0.766,1.449h-0.986    c-0.026-1-0.114-0.236-0.186-0.375C22.59,145.647,22,145.33,22,145.309v1.888c1,0.27,1.211,0.512,1.48,0.721    c0.444,0.35,0.666,1.149,0.666,1.781C24.146,150.522,23.841,151.128,23.23,151.505z"/>
	</g>
	<path id="path173" fill="#0076A4" d="M4.971,166.228h8.698v1.447H4.971V166.228z"/>
	<path id="path175" fill="#0076A4" d="M15.119,158.979l4.621-2.897h6.75l-4.122,2.897v8.696H15.12L15.119,158.979L15.119,158.979z"/>
	<path id="path177" fill="#0076A4" d="M4.971,163.328h8.698v1.446H4.971V163.328z"/>
	<path id="path179" fill="#0076A4" d="M4.971,160.427h8.698v1.449H4.971V160.427z"/>
	<path id="path181" fill="#0076A4" d="M23.816,166.228h8.697l4.304-2.943v1.541l-4.304,2.854h-8.697V166.228L23.816,166.228z"/>
	<path id="path183" fill="#0076A4" d="M23.816,163.328h8.697l4.304-2.945v1.541l-4.304,2.855h-8.697V163.328L23.816,163.328z"/>
	<path id="path185" fill="#0076A4" d="M23.816,160.427h8.697l4.304-2.941v1.539l-4.304,2.854h-8.697V160.427L23.816,160.427z"/>
	<path id="path187" fill="#0076A4" d="M23.997,158.979h8.471l4.349-2.942h-8.335L23.997,158.979z"/>
	<path id="path189" fill="#0076A4" d="M5.152,158.979h8.335l4.349-2.942H9.637L5.152,158.979z"/>
</g>
<g id="g191">
	<g id="g193">
		<path id="path195" fill="#1E8CCC" d="M197.843,30.268c-0.967-1.674-3.106-2.248-4.78-1.281c-1.103,0.637-1.714,1.782-1.737,2.968    l-0.842,0.831l-8.111,4.684l-0.367,1.365l2.732,0.732l0.146-1.865l1.867,0.99l0.584-0.625l0.084-1.615l1.961,0.615l0.646-0.406    l0.021-1.646l1.615,0.554l1.729-0.36c0.985,0.439,2.163,0.425,3.171-0.157C198.236,34.082,198.81,31.941,197.843,30.268z     M195.899,32.4c-0.479,0.275-1.09,0.112-1.366-0.365c-0.275-0.479-0.111-1.091,0.366-1.367c0.479-0.275,1.09-0.111,1.366,0.367    C196.542,31.513,196.378,32.125,195.899,32.4z"/>
	</g>
</g>
<g id="g197">
	<g id="g199">
		<polygon id="polygon201" fill="#7F909A" points="62,160 56,160 56,154 54,154 54,160 48,160 48,162 54,162 54,168 56,168 56,162     62,162   "/>
	</g>
</g>
<g id="g203">
	<g id="g205">
		<rect id="rect207" x="69" y="160" fill="#7F909A" width="14" height="2"/>
	</g>
</g>
<g id="g209" opacity="0.3">
	<g id="g211">
		<polygon id="polygon213" fill="#7F909A" points="104,160 98,160 98,154 96,154 96,160 90,160 90,162 96,162 96,168 98,168 98,162     104,162   "/>
	</g>
</g>
<g id="g215" opacity="0.3">
	<g id="g217">
		<rect id="rect219" x="111" y="160" fill="#7F909A" width="14" height="2"/>
	</g>
</g>
<polyline id="polyline221" fill="none" stroke="#2693CC" stroke-width="1.3" stroke-miterlimit="10" points="138.983,167.658   149.516,157.188 160.234,167.658 "/>
<polyline id="polyline223" opacity="0.6" fill="none" stroke="#2693CC" stroke-width="1.3" stroke-miterlimit="10" enable-background="new    " points="  138.983,152.658 149.516,142.188 160.234,152.658 "/>
<path id="path225" fill="#556474" d="M178.739,155.146c-0.737,0.965-1.479,1.629-1.649,2.418c-0.219,0.775-0.022,1.646,0.584,2.262  c0.271,0.271,0.599,0.461,0.938,0.564c0.155,0.064,0.291-0.021,0.421-0.154l1.406-2.068c0,0,0.264-0.51-0.259-0.813  c-0.229-0.136-0.54-0.229-0.769-0.336c0.215-0.267,1.166-1.371,1.452-1.679 M181.123,165.195l11.729-11.73  c0.698-0.692,0.698-1.823,0-2.52l-6.397-6.4c-0.697-0.693-1.828-0.693-2.521,0l-11.804,11.797 M187.445,147.976l2.008,2.01  c0.157,0.156,0.157,0.408,0.002,0.563c-0.156,0.156-0.41,0.156-0.563,0l-2.012-2.008c-0.151-0.154-0.151-0.408,0-0.563  C187.037,147.817,187.289,147.817,187.445,147.976z M172.873,156.921l10.729-10.738l7.604,7.605l-10.66,10.66 M180.678,164.32  l-0.001-0.003l-7.602-7.603l1.471-1.473L173.47,155l-2.918,2.92c-0.697,0.695-0.697,1.828,0,2.522l6.4,6.399  c0.693,0.697,1.821,0.695,2.521,0l8.532-8.534 M174.5,162.854c-0.438-0.438-0.438-1.149,0-1.588c0.438-0.438,1.15-0.438,1.588,0  c0.438,0.438,0.439,1.147,0.002,1.588C175.651,163.292,174.939,163.289,174.5,162.854z"/>
<path id="path227" fill="#556474" d="M183.214,153.313c0.108,0.228,0.259,0.438,0.445,0.627c0.275,0.278,0.608,0.472,0.965,0.576  h0.004c0.146,0.051,0.322,0.021,0.439-0.104l1.432-1.428c0.129-0.129,0.158-0.318,0.092-0.479c-0.106-0.342-0.299-0.664-0.565-0.932  c-0.612-0.613-1.481-0.813-2.259-0.588c-0.79,0.17-1.335,0.844-2.295,1.59c-1.903,1.479-2.733,2.563-2.733,2.563  c-0.911,0.814,1.116,1.398,2.126,0.189C181.923,154.063,183.214,153.313,183.214,153.313z"/>
<path id="path229" fill="#424242" d="M20.501,189.365c0,0-2.885-2.939-6.86-2.939c-3.883,0-7.722,2.939-7.722,2.939l-2.156-0.898  v2.643c0.339,0.115,0.588,0.432,0.588,0.811c0,0.383-0.254,0.695-0.599,0.81l0.638,1.778H2.509l0.643-1.793  c-0.309-0.133-0.525-0.438-0.525-0.795c0-0.354,0.21-0.646,0.51-0.781v-2.928L0,186.896l13.799-6.191l12.66,6.271L20.501,189.365z   M13.486,187.916c3.999,0,5.958,2.115,5.958,2.115v4.393c0,0-2.038,1.646-6.271,1.646s-5.645-1.646-5.645-1.646v-4.393  C7.527,190.031,9.486,187.916,13.486,187.916z M13.407,195.128c2.771,0,5.018-0.563,5.018-1.254c0-0.691-2.247-1.256-5.018-1.256  s-5.018,0.563-5.018,1.256C8.389,194.566,10.636,195.128,13.407,195.128z"/>
<g id="g231">
	<g id="g233">
		<path id="path235" fill="#424242" d="M52.504,190.951h-7.011v0.795h7.011V190.951z M52.504,193.582h-7.011v0.852h7.011V193.582z     M52.504,198.824h-7.011v0.85h7.011V198.824z M48.149,180.406v2.645h-2.656v2.645h-2.589v16.602h12.243v-2.658h2.587v-2.573h2.644    V180.41H48.149V180.406z M54.297,201.44H43.753v-14.952h10.544V201.44z M56.886,198.839h-1.739v-13.146h-8.805V183.9h10.544    V198.839z M59.529,196.208h-1.794V183.05h-8.736v-1.795H59.53L59.529,196.208L59.529,196.208z M52.504,196.183h-7.011v0.85h7.011    V196.183z M52.516,188.294h-7.011v0.875h7.011V188.294z"/>
	</g>
</g>
<path id="path237" fill="#424242" d="M91.552,198.138c0.192,0,0.35,0.154,0.35,0.35c0,0.193,0,1.053,0,1.053H78.578  c0,0,0-0.854,0-1.053c0-0.193,0.158-0.35,0.351-0.35h1.172c0.058-4.67,3.107-6.176,3.107-8.063c0-1.898-3.105-2.023-3.135-8.066  h-1.144c-0.193,0-0.351-0.156-0.351-0.352c0-0.193,0-1.056,0-1.056h13.324c0,0,0,0.856,0,1.056c0,0.189-0.158,0.352-0.35,0.352  h-1.074c-0.029,6.045-3.135,6.17-3.135,8.066c0,1.887,3.05,3.393,3.108,8.063H91.552z M86.37,190.076  c0-1.904,3.106-2.023,3.136-8.066h-8.459c0.029,6.047,3.135,6.162,3.135,8.066c0,1.83-3.05,3.375-3.108,8.063h0.531  c0.124-0.416,0.539-0.918,1.255-1.286l0.931-0.476c0.584-0.303,0.935-0.508,1.052-0.61c0.116-0.104,0.248-0.343,0.396-0.707  c0.154,0.364,0.287,0.604,0.399,0.707c0.112,0.104,0.458,0.312,1.04,0.61l0.927,0.476c0.711,0.368,1.125,0.87,1.248,1.286h0.626  C89.421,193.451,86.37,191.906,86.37,190.076z M85.641,189.046c-0.086,0.166-0.155,0.479-0.212,0.943  c-0.012,0.141-0.044,0.352-0.094,0.635c-0.05-0.283-0.081-0.494-0.094-0.635c-0.058-0.468-0.128-0.777-0.212-0.943  c-0.085-0.166-0.324-0.461-0.719-0.891l-0.878-0.961c-0.6-0.646-0.983-1.109-1.152-1.396c1.04,0.662,2.055,0.994,3.047,0.994  c0.992,0,2.011-0.332,3.061-0.994c-0.176,0.281-0.562,0.746-1.158,1.396l-0.874,0.961C85.964,188.585,85.725,188.88,85.641,189.046z  "/>
<g id="g239">
	<g id="g241">
		<path id="path243" fill="#424242" d="M115.208,183.729c0.506,0,12.765,0,14.229,0s1.465-1.521,0.057-1.521    c-1.406,0-9.271,0-9.834,0c-0.563,0-0.845-0.844-0.845-0.844s-0.396-1.24-1.187-1.24c-0.789,0-6.254,0-7.323,0    c-1.07,0-0.788,1.24-0.788,1.24s1.634,13.895,1.746,14.74c0.111,0.848,0.984,1.098,0.984,1.098l1.916-12.291    C114.307,184.013,114.925,183.757,115.208,183.729z M132.337,184.265h-16.68c-0.496,0-0.9,0.404-0.9,0.902l-1.745,11.133    c0,0.5,0.401,0.902,0.901,0.902h16.676c0.496,0,0.902-0.402,0.902-0.902l1.741-11.133    C133.237,184.669,132.833,184.265,132.337,184.265z"/>
	</g>
</g>
<g id="g245">
	<g id="g247">
		<polygon id="polygon249" fill="#0077A3" points="152.496,195.908 146.039,189.505 146.001,189.542 145.964,189.505     139.505,195.908 140.105,196.501 146.001,190.656 151.898,196.501   "/>
	</g>
</g>
<g id="g251">
	<g id="g253">
		<polygon id="polygon255" fill="#0077A3" points="168.496,190.099 167.898,189.505 162.001,195.351 156.105,189.505     155.505,190.099 161.964,196.501 162.001,196.464 162.039,196.501   "/>
	</g>
</g>
<g id="g257">
	<g id="g259">
		<path id="path261" fill="#3E454C" d="M32.041,213.98c-1.955-3.329-6.286-4.471-9.672-2.549c-2.235,1.27-3.493,3.557-3.533,5.921    l-1.685,1.636L0.74,228.3L0,231.018l5.527,1.456l0.298-3.711l3.775,1.971l1.183-1.242l0.172-3.215l3.964,1.227l1.31-0.809    l0.045-3.275l3.269,1.103l3.472-0.713c2.003,0.881,4.39,0.845,6.436-0.313C32.836,221.567,33.996,217.31,32.041,213.98z     M28.108,218.222c-0.968,0.549-2.205,0.225-2.764-0.729c-0.559-0.951-0.227-2.166,0.74-2.719c0.968-0.55,2.205-0.227,2.764,0.729    C29.407,216.457,29.076,217.673,28.108,218.222z"/>
	</g>
</g>
<g id="g263">
	<g id="g265">
		<polygon id="polygon267" fill="#808080" points="62.479,212.695 60.292,210.498 55.507,215.306 50.723,210.498 48.535,212.695     53.319,217.505 48.535,222.313 50.723,224.513 55.507,219.705 60.292,224.513 62.479,222.313 57.695,217.505   "/>
	</g>
</g>
<g id="g269">
	<g id="g271">
		<path id="path273" fill="#FFFFFF" d="M172.712,240.666l2.891,1.752l9.078-13.943l-2.891-1.752L172.712,240.666z M180.664,225.16    v-14.744H160.18v26.346h12.933L180.664,225.16z M163.591,215.355h13.656v1.646h-13.656V215.355z M163.591,220.296h13.656v1.645    h-13.656V220.296z M163.591,225.236h13.656v1.645h-13.656V225.236z M182.697,225.326l2.893,1.752l1.578-5.521L182.697,225.326z"/>
	</g>
</g>
<g id="g275">
	<g id="g277">
		<path id="path279" fill="#2694CD" d="M138.022,240.666l2.892,1.752l9.078-13.943l-2.892-1.752L138.022,240.666z M145.973,225.16    v-14.744h-20.484v26.346h12.933L145.973,225.16z M128.901,215.355h13.656v1.646h-13.656V215.355z M128.901,220.296h13.656v1.645    h-13.656V220.296z M128.901,225.236h13.656v1.645h-13.656V225.236z M148.005,225.326l2.894,1.752l1.578-5.521L148.005,225.326z"/>
	</g>
</g>
<path id="path368" inkscape:connector-curvature="0" fill="#F2B035" d="M117.765,213.927c-0.111-0.166-0.254-0.326-0.455-0.453  c-13.552-8.512-29.886,0.801-39.889,12.148c0.395-1.104,0.746-2.209,0.977-3.365c0.376-1.881-2.436-2.66-2.815-0.766  c-0.783,3.918-2.792,7.408-3.348,11.404c-0.91,1.309,1.028,3.088,2.33,1.857c3.088-2.918,6.88-5.078,11.037-5.9  c1.869-0.369,1.108-3.27-0.743-2.902c-1.895,0.375-3.713,1.031-5.45,1.873c9.078-10.449,24.091-19.508,36.428-11.758  C117.25,216.953,118.544,215.089,117.765,213.927z"/>
<g id="g4057" transform="matrix(0,0.80552723,-0.78693139,0,198.02787,174.167)">
	<path id="path4059" inkscape:connector-curvature="0" fill="#1784B0" d="M0.922,0.036C0.39,0.036,0,0.46,0,0.957V22.89   c0,0.496,0.389,0.921,0.921,0.921h27.496l6.343,4.182V22.89v-1.134V0.957c0-0.496-0.427-0.921-0.921-0.921H0.922z M5.492,5.527   h23.776c0.495,0,0.921,0.39,0.921,0.886v0.922c0,0.495-0.427,0.921-0.921,0.921H5.492c-0.497,0-0.921-0.426-0.921-0.921V6.413   C4.571,5.917,4.995,5.527,5.492,5.527z M5.492,10.098h23.776c0.495,0,0.921,0.426,0.921,0.922v0.921   c0,0.496-0.427,0.886-0.921,0.886H5.492c-0.497,0-0.921-0.39-0.921-0.886V11.02C4.571,10.523,4.995,10.098,5.492,10.098z    M5.492,14.67h23.776c0.495,0,0.921,0.424,0.921,0.921v0.886c0,0.531-0.427,0.921-0.921,0.921H5.492   c-0.497,0-0.921-0.39-0.921-0.921V15.59C4.571,15.094,4.995,14.67,5.492,14.67z"/>
</g>
<path id="path4067" sodipodi:arg2="1.5363854" sodipodi:arg1="0.90806682" sodipodi:r2="3.581706" sodipodi:r1="7.1634121" sodipodi:cy="229.32777" sodipodi:cx="41.365646" sodipodi:sides="5" sodipodi:type="star" inkscape:randomized="0" inkscape:rounded="0" inkscape:flatsided="false" fill="#BDC3C7" d="  M89.041,147.161l-8.036-4.267l-8.033,4.273l1.531-9.045L68,131.72l8.982-1.323l4.014-8.23l4.02,8.227L94,131.71l-6.498,6.406  L89.041,147.161z"/>
<path id="path4067-1" sodipodi:arg2="1.5363854" sodipodi:arg1="0.90806682" sodipodi:r2="3.581706" sodipodi:r1="7.1634121" sodipodi:cy="229.32777" sodipodi:cx="41.365646" sodipodi:sides="5" sodipodi:type="star" inkscape:randomized="0" inkscape:rounded="0" inkscape:flatsided="false" fill="#F39C12" d="  M115.041,147.161l-8.036-4.267l-8.033,4.273l1.531-9.045L94,131.72l8.982-1.323l4.015-8.23l4.021,8.227L120,131.71l-6.497,6.406  L115.041,147.161z"/>
<g id="g5052" transform="matrix(1.4363298,0,0,-1.4541722,-33.725311,763.25866)">
	<path id="path440" inkscape:connector-curvature="0" fill="#0076A4" d="M27.237,337.317c0.643,0.881,0.865,1.297,0.975,1.682   c-0.105-0.011-0.204-0.017-0.316-0.017c-2.055,0-3.72,1.67-3.72,3.726c0,2.062,1.594,3.733,3.65,3.733   c2.062,0,3.663-1.671,3.663-3.733v-0.053C31.489,342.604,30.964,338.502,27.237,337.317"/>
	<path id="path444" inkscape:connector-curvature="0" fill="#0076A4" d="M35.563,339.653c0.796,1.095,1.075,1.609,1.214,2.088   c-0.131-0.014-0.253-0.022-0.392-0.022c-2.551,0-4.616,2.073-4.616,4.624c0,2.558,1.974,4.631,4.526,4.631   c2.559,0,4.54-2.073,4.54-4.631v-0.065C40.835,346.212,40.188,341.126,35.563,339.653"/>
	<path id="path480" inkscape:connector-curvature="0" fill="#0076A4" d="M41.006,349.07c0.091-0.382,0.747-0.771,0.793-1.168h12.472   v1.168H41.006z"/>
	<path id="path484" inkscape:connector-curvature="0" fill="#0076A4" d="M41.472,343.228c-0.114-0.398-0.826-0.791-0.984-1.168   h13.783v1.168H41.472L41.472,343.228z"/>
	<path id="path488" inkscape:connector-curvature="0" fill="#0076A4" d="M41.874,346.149c0-0.021,0.004-0.042,0.004-0.063   c0-0.374-0.021-0.743-0.06-1.105h12.452v1.168H41.874z"/>
</g>
<g>
	<path fill="#0076A4" d="M72.47,281.265v-28.182H50.054v28.182H72.47z M51.752,254.782h19.021v24.785H51.752V254.782z"/>
	<rect x="53.983" y="261.651" fill="#0076A4" width="14.559" height="1.698"/>
	<rect x="53.983" y="265.651" fill="#0076A4" width="14.559" height="1.698"/>
	<rect x="53.983" y="257.651" fill="#0076A4" width="14.559" height="1.698"/>
</g>
<style xmlns="http://www.w3.org/1999/xhtml" charset="utf-8" type="text/css" class="firebugResetStyles">/* See license.txt for terms of usage */
/** reset styling **/
.firebugResetStyles {
    z-index: 2147483646 !important;
    top: 0 !important;
    left: 0 !important;
    display: block !important;
    border: 0 none !important;
    margin: 0 !important;
    padding: 0 !important;
    outline: 0 !important;
    min-width: 0 !important;
    max-width: none !important;
    min-height: 0 !important;
    max-height: none !important;
    position: fixed !important;
    transform: rotate(0deg) !important;
    transform-origin: 50% 50% !important;
    border-radius: 0 !important;
    box-shadow: none !important;
    background: transparent none !important;
    pointer-events: none !important;
    white-space: normal !important;
}
style.firebugResetStyles {
    display: none !important;
}

.firebugBlockBackgroundColor {
    background-color: transparent !important;
}

.firebugResetStyles:before, .firebugResetStyles:after {
    content: "" !important;
}
/**actual styling to be modified by firebug theme**/
.firebugCanvas {
    display: none !important;
}

/* * * * * * * * * * * * * * * * * * * * * * * * * * * * * * * * * * * * * * * * * * * * * * * * */
.firebugLayoutBox {
    width: auto !important;
    position: static !important;
}

.firebugLayoutBoxOffset {
    opacity: 0.8 !important;
    position: fixed !important;
}

.firebugLayoutLine {
    opacity: 0.4 !important;
    background-color: #000000 !important;
}

.firebugLayoutLineLeft, .firebugLayoutLineRight {
    width: 1px !important;
    height: 100% !important;
}

.firebugLayoutLineTop, .firebugLayoutLineBottom {
    width: 100% !important;
    height: 1px !important;
}

.firebugLayoutLineTop {
    margin-top: -1px !important;
    border-top: 1px solid #999999 !important;
}

.firebugLayoutLineRight {
    border-right: 1px solid #999999 !important;
}

.firebugLayoutLineBottom {
    border-bottom: 1px solid #999999 !important;
}

.firebugLayoutLineLeft {
    margin-left: -1px !important;
    border-left: 1px solid #999999 !important;
}

/* * * * * * * * * * * * * * * * * * * * * * * * * * * * * * * * * * * * * * * * * * * * * * * * */
.firebugLayoutBoxParent {
    border-top: 0 none !important;
    border-right: 1px dashed #E00 !important;
    border-bottom: 1px dashed #E00 !important;
    border-left: 0 none !important;
    position: fixed !important;
    width: auto !important;
}

.firebugRuler{
    position: absolute !important;
}

.firebugRulerH {
    top: -15px !important;
    left: 0 !important;
    width: 100% !important;
    height: 14px !important;
    background: url("data:image/png,%89PNG%0D%0A%1A%0A%00%00%00%0DIHDR%00%00%13%88%00%00%00%0E%08%02%00%00%00L%25a%0A%00%00%00%04gAMA%00%00%D6%D8%D4OX2%00%00%00%19tEXtSoftware%00Adobe%20ImageReadyq%C9e%3C%00%00%04%F8IDATx%DA%EC%DD%D1n%E2%3A%00E%D1%80%F8%FF%EF%E2%AF2%95%D0D4%0E%C1%14%B0%8Fa-%E9%3E%CC%9C%87n%B9%81%A6W0%1C%A6i%9A%E7y%0As8%1CT%A9R%A5J%95*U%AAT%A9R%A5J%95*U%AAT%A9R%A5J%95*U%AAT%A9R%A5J%95*U%AAT%A9R%A5J%95*U%AAT%A9R%A5J%95*U%AAT%A9R%A5J%95*U%AATE9%FE%FCw%3E%9F%AF%2B%2F%BA%97%FDT%1D~K(%5C%9D%D5%EA%1B%5C%86%B5%A9%BDU%B5y%80%ED%AB*%03%FAV9%AB%E1%CEj%E7%82%EF%FB%18%BC%AEJ8%AB%FA'%D2%BEU9%D7U%ECc0%E1%A2r%5DynwVi%CFW%7F%BB%17%7Dy%EACU%CD%0E%F0%FA%3BX%FEbV%FEM%9B%2B%AD%BE%AA%E5%95v%AB%AA%E3E5%DCu%15rV9%07%B5%7F%B5w%FCm%BA%BE%AA%FBY%3D%14%F0%EE%C7%60%0EU%AAT%A9R%A5J%95*U%AAT%A9R%A5J%95*U%AAT%A9R%A5J%95*U%AAT%A9R%A5J%95*U%AAT%A9R%A5JU%88%D3%F5%1F%AE%DF%3B%1B%F2%3E%DAUCNa%F92%D02%AC%7Dm%F9%3A%D4%F2%8B6%AE*%BF%5C%C2Ym~9g5%D0Y%95%17%7C%C8c%B0%7C%18%26%9CU%CD%13i%F7%AA%90%B3Z%7D%95%B4%C7%60%E6E%B5%BC%05%B4%FBY%95U%9E%DB%FD%1C%FC%E0%9F%83%7F%BE%17%7DkjMU%E3%03%AC%7CWj%DF%83%9An%BCG%AE%F1%95%96yQ%0Dq%5Dy%00%3Et%B5'%FC6%5DS%95pV%95%01%81%FF'%07%00%00%00%00%00%00%00%00%00%F8x%C7%F0%BE%9COp%5D%C9%7C%AD%E7%E6%EBV%FB%1E%E0(%07%E5%AC%C6%3A%ABi%9C%8F%C6%0E9%AB%C0'%D2%8E%9F%F99%D0E%B5%99%14%F5%0D%CD%7F%24%C6%DEH%B8%E9rV%DFs%DB%D0%F7%00k%FE%1D%84%84%83J%B8%E3%BA%FB%EF%20%84%1C%D7%AD%B0%8E%D7U%C8Y%05%1E%D4t%EF%AD%95Q%BF8w%BF%E9%0A%BF%EB%03%00%00%00%00%00%00%00%00%00%B8vJ%8E%BB%F5%B1u%8Cx%80%E1o%5E%CA9%AB%CB%CB%8E%03%DF%1D%B7T%25%9C%D5(%EFJM8%AB%CC'%D2%B2*%A4s%E7c6%FB%3E%FA%A2%1E%80~%0E%3E%DA%10x%5D%95Uig%15u%15%ED%7C%14%B6%87%A1%3B%FCo8%A8%D8o%D3%ADO%01%EDx%83%1A~%1B%9FpP%A3%DC%C6'%9C%95gK%00%00%00%00%00%00%00%00%00%20%D9%C9%11%D0%C0%40%AF%3F%EE%EE%92%94%D6%16X%B5%BCMH%15%2F%BF%D4%A7%C87%F1%8E%F2%81%AE%AAvzr%DA2%ABV%17%7C%E63%83%E7I%DC%C6%0Bs%1B%EF6%1E%00%00%00%00%00%00%00%00%00%80cr%9CW%FF%7F%C6%01%0E%F1%CE%A5%84%B3%CA%BC%E0%CB%AA%84%CE%F9%BF)%EC%13%08WU%AE%AB%B1%AE%2BO%EC%8E%CBYe%FE%8CN%ABr%5Dy%60~%CFA%0D%F4%AE%D4%BE%C75%CA%EDVB%EA(%B7%F1%09g%E5%D9%12%00%00%00%00%00%00%00%00%00H%F6%EB%13S%E7y%5E%5E%FB%98%F0%22%D1%B2'%A7%F0%92%B1%BC%24z3%AC%7Dm%60%D5%92%B4%7CEUO%5E%F0%AA*%3BU%B9%AE%3E%A0j%94%07%A0%C7%A0%AB%FD%B5%3F%A0%F7%03T%3Dy%D7%F7%D6%D4%C0%AAU%D2%E6%DFt%3F%A8%CC%AA%F2%86%B9%D7%F5%1F%18%E6%01%F8%CC%D5%9E%F0%F3z%88%AA%90%EF%20%00%00%00%00%00%00%00%00%00%C0%A6%D3%EA%CFi%AFb%2C%7BB%0A%2B%C3%1A%D7%06V%D5%07%A8r%5D%3D%D9%A6%CAu%F5%25%CF%A2%99%97zNX%60%95%AB%5DUZ%D5%FBR%03%AB%1C%D4k%9F%3F%BB%5C%FF%81a%AE%AB'%7F%F3%EA%FE%F3z%94%AA%D8%DF%5B%01%00%00%00%00%00%00%00%00%00%8E%FB%F3%F2%B1%1B%8DWU%AAT%A9R%A5J%95*U%AAT%A9R%A5J%95*U%AAT%A9R%A5J%95*U%AAT%A9R%A5J%95*U%AAT%A9R%A5J%95*U%AAT%A9R%A5J%95*U%AAT%A9R%A5J%95*UiU%C7%BBe%E7%F3%B9%CB%AAJ%95*U%AAT%A9R%A5J%95*U%AAT%A9R%A5J%95*U%AAT%A9R%A5J%95*U%AAT%A9R%A5J%95*U%AAT%A9R%A5J%95*U%AAT%A9R%A5J%95*U%AAT%A9R%A5*%AAj%FD%C6%D4%5Eo%90%B5Z%ADV%AB%D5j%B5Z%ADV%AB%D5j%B5Z%ADV%AB%D5j%B5Z%ADV%AB%D5j%B5Z%ADV%AB%D5j%B5Z%ADV%AB%D5j%B5Z%ADV%AB%D5j%B5%86%AF%1B%9F%98%DA%EBm%BBV%AB%D5j%B5Z%ADV%AB%D5j%B5Z%ADV%AB%D5j%B5Z%ADV%AB%D5j%B5Z%ADV%AB%D5j%B5Z%ADV%AB%D5j%B5Z%ADV%AB%D5j%B5Z%AD%D6%E4%F58%01%00%00%00%00%00%00%00%00%00%00%00%00%00%40%85%7F%02%0C%008%C2%D0H%16j%8FX%00%00%00%00IEND%AEB%60%82") repeat-x !important;
    border-top: 1px solid #BBBBBB !important;
    border-right: 1px dashed #BBBBBB !important;
    border-bottom: 1px solid #000000 !important;
}

.firebugRulerV {
    top: 0 !important;
    left: -15px !important;
    width: 14px !important;
    height: 100% !important;
    background: url("data:image/png,%89PNG%0D%0A%1A%0A%00%00%00%0DIHDR%00%00%00%0E%00%00%13%88%08%02%00%00%00%0E%F5%CB%10%00%00%00%04gAMA%00%00%D6%D8%D4OX2%00%00%00%19tEXtSoftware%00Adobe%20ImageReadyq%C9e%3C%00%00%06~IDATx%DA%EC%DD%D1v%A20%14%40Qt%F1%FF%FF%E4%97%D9%07%3BT%19%92%DC%40(%90%EEy%9A5%CB%B6%E8%F6%9Ac%A4%CC0%84%FF%DC%9E%CF%E7%E3%F1%88%DE4%F8%5D%C7%9F%2F%BA%DD%5E%7FI%7D%F18%DDn%BA%C5%FB%DF%97%BFk%F2%10%FF%FD%B4%F2M%A7%FB%FD%FD%B3%22%07p%8F%3F%AE%E3%F4S%8A%8F%40%EEq%9D%BE8D%F0%0EY%A1Uq%B7%EA%1F%81%88V%E8X%3F%B4%CEy%B7h%D1%A2E%EBohU%FC%D9%AF2fO%8BBeD%BE%F7X%0C%97%A4%D6b7%2Ck%A5%12%E3%9B%60v%B7r%C7%1AI%8C%BD%2B%23r%00c0%B2v%9B%AD%CA%26%0C%1Ek%05A%FD%93%D0%2B%A1u%8B%16-%95q%5Ce%DCSO%8E%E4M%23%8B%F7%C2%FE%40%BB%BD%8C%FC%8A%B5V%EBu%40%F9%3B%A72%FA%AE%8C%D4%01%CC%B5%DA%13%9CB%AB%E2I%18%24%B0n%A9%0CZ*Ce%9C%A22%8E%D8NJ%1E%EB%FF%8F%AE%CAP%19*%C3%BAEKe%AC%D1%AAX%8C*%DEH%8F%C5W%A1e%AD%D4%B7%5C%5B%19%C5%DB%0D%EF%9F%19%1D%7B%5E%86%BD%0C%95%A12%AC%5B*%83%96%CAP%19%F62T%86%CAP%19*%83%96%CA%B8Xe%BC%FE)T%19%A1%17xg%7F%DA%CBP%19*%C3%BA%A52T%86%CAP%19%F62T%86%CA%B0n%A9%0CZ%1DV%C6%3D%F3%FCH%DE%B4%B8~%7F%5CZc%F1%D6%1F%AF%84%F9%0F6%E6%EBVt9%0E~%BEr%AF%23%B0%97%A12T%86%CAP%19%B4T%86%CA%B8Re%D8%CBP%19*%C3%BA%A52huX%19%AE%CA%E5%BC%0C%7B%19*CeX%B7h%A9%0C%95%E1%BC%0C%7B%19*CeX%B7T%06%AD%CB%5E%95%2B%BF.%8F%C5%97%D5%E4%7B%EE%82%D6%FB%CF-%9C%FD%B9%CF%3By%7B%19%F62T%86%CA%B0n%D1R%19*%A3%D3%CA%B0%97%A12T%86uKe%D0%EA%B02*%3F1%99%5DB%2B%A4%B5%F8%3A%7C%BA%2B%8Co%7D%5C%EDe%A8%0C%95a%DDR%19%B4T%C66%82fA%B2%ED%DA%9FC%FC%17GZ%06%C9%E1%B3%E5%2C%1A%9FoiB%EB%96%CA%A0%D5qe4%7B%7D%FD%85%F7%5B%ED_%E0s%07%F0k%951%ECr%0D%B5C%D7-g%D1%A8%0C%EB%96%CA%A0%A52T%C6)*%C3%5E%86%CAP%19%D6-%95A%EB*%95q%F8%BB%E3%F9%AB%F6%E21%ACZ%B7%22%B7%9B%3F%02%85%CB%A2%5B%B7%BA%5E%B7%9C%97%E1%BC%0C%EB%16-%95%A12z%AC%0C%BFc%A22T%86uKe%D0%EA%B02V%DD%AD%8A%2B%8CWhe%5E%AF%CF%F5%3B%26%CE%CBh%5C%19%CE%CB%B0%F3%A4%095%A1%CAP%19*Ce%A8%0C%3BO*Ce%A8%0C%95%A12%3A%AD%8C%0A%82%7B%F0v%1F%2FD%A9%5B%9F%EE%EA%26%AF%03%CA%DF9%7B%19*Ce%A8%0C%95%A12T%86%CA%B8Ze%D8%CBP%19*Ce%A8%0C%95%D1ae%EC%F7%89I%E1%B4%D7M%D7P%8BjU%5C%BB%3E%F2%20%D8%CBP%19*Ce%A8%0C%95%A12T%C6%D5*%C3%5E%86%CAP%19*Ce%B4O%07%7B%F0W%7Bw%1C%7C%1A%8C%B3%3B%D1%EE%AA%5C%D6-%EBV%83%80%5E%D0%CA%10%5CU%2BD%E07YU%86%CAP%19*%E3%9A%95%91%D9%A0%C8%AD%5B%EDv%9E%82%FFKOee%E4%8FUe%A8%0C%95%A12T%C6%1F%A9%8C%C8%3D%5B%A5%15%FD%14%22r%E7B%9F%17l%F8%BF%ED%EAf%2B%7F%CF%ECe%D8%CBP%19*Ce%A8%0C%95%E1%93~%7B%19%F62T%86%CAP%19*Ce%A8%0C%E7%13%DA%CBP%19*Ce%A8%0CZf%8B%16-Z%B4h%D1R%19f%8B%16-Z%B4h%D1R%19%B4%CC%16-Z%B4h%D1R%19%B4%CC%16-Z%B4h%D1%A2%A52%CC%16-Z%B4h%D1%A2%A52h%99-Z%B4h%D1%A2%A52h%99-Z%B4h%D1%A2EKe%98-Z%B4h%D1%A2EKe%D02%5B%B4h%D1%A2EKe%D02%5B%B4h%D1%A2E%8B%96%CA0%5B%B4h%D1%A2E%8B%96%CA%A0e%B6h%D1%A2E%8B%96%CA%A0e%B6h%D1%A2E%8B%16-%95a%B6h%D1%A2E%8B%16-%95A%CBl%D1%A2E%8B%16-%95A%CBl%D1%A2E%8B%16-Z*%C3l%D1%A2E%8B%16-Z*%83%96%D9%A2E%8B%16-Z*%83%96%D9%A2E%8B%16-Z%B4T%86%D9%A2E%8B%16-Z%B4T%06-%B3E%8B%16-Z%B4T%06-%B3E%8B%16-Z%B4h%A9%0C%B3E%8B%16-Z%B4h%A9%0CZf%8B%16-Z%B4h%A9%0CZf%8B%16-Z%B4h%D1R%19f%8B%16-Z%B4h%D1R%19%B4%CC%16-Z%B4h%D1R%19%B4%CC%16-Z%B4h%D1%A2%A52%CC%16-Z%B4h%D1%A2%A52h%99-Z%B4h%D1%A2%A52h%99-Z%B4h%D1%A2EKe%98-Z%B4h%D1%A2EKe%D02%5B%B4h%D1%A2EKe%D02%5B%B4h%D1%A2E%8B%96%CA0%5B%B4h%D1%A2E%8B%96%CA%A0e%B6h%D1%A2E%8B%96%CA%A0e%B6h%D1%A2E%8B%16-%95a%B6h%D1%A2E%8B%16-%95A%CBl%D1%A2E%8B%16-%95A%CBl%D1%A2E%8B%16-Z*%C3l%D1%A2E%8B%16-Z*%83%96%D9%A2E%8B%16-Z*%83%96%D9%A2E%8B%16-Z%B4T%86%D9%A2E%8B%16-Z%B4T%06-%B3E%8B%16-Z%B4T%06-%B3E%8B%16-Z%B4h%A9%0C%B3E%8B%16-Z%B4h%A9%0CZf%8B%16-Z%B4h%A9%0CZf%8B%16-Z%B4h%D1R%19f%8B%16-Z%B4h%D1R%19%B4%CC%16-Z%B4h%D1R%19%B4%CC%16-Z%B4h%D1%A2%A52%CC%16-Z%B4h%D1%A2%A52h%99-Z%B4h%D1%A2%A52h%99-Z%B4h%D1%A2EKe%98-Z%B4h%D1%A2EKe%D02%5B%B4h%D1%A2EKe%D02%5B%B4h%D1%A2E%8B%96%CA0%5B%B4h%D1%A2E%8B%96%CA%A0e%B6h%D1%A2E%8B%96%CA%A0e%B6h%D1%A2E%8B%16-%95a%B6h%D1%A2E%8B%16-%95A%CBl%D1%A2E%8B%16-%95A%CBl%D1%A2E%8B%16-Z*%C3l%D1%A2E%8B%16-Z*%83%96%D9%A2E%8B%16-Z*%83%96%D9%A2E%8B%16-Z%B4T%86%D9%A2E%8B%16-Z%B4T%06-%B3E%8B%16-Z%B4%AE%A4%F5%25%C0%00%DE%BF%5C'%0F%DA%B8q%00%00%00%00IEND%AEB%60%82") repeat-y !important;
    border-left: 1px solid #BBBBBB !important;
    border-right: 1px solid #000000 !important;
    border-bottom: 1px dashed #BBBBBB !important;
}

.overflowRulerX &gt; .firebugRulerV {
    left: 0 !important;
}

.overflowRulerY &gt; .firebugRulerH {
    top: 0 !important;
}

/* * * * * * * * * * * * * * * * * * * * * * * * * * * * * * * * * * * * * * * * * * * * * * * * */
.fbProxyElement {
    position: fixed !important;
    pointer-events: auto !important;
}
</style></svg>